# xmcd
# 
# Track frame offsets:
#     150
#     31017
#     56227
#     69190
#     81142
#     98217
#     115092
#     127165
#     149220
#     192942
#     209320
#     224310
#     242560
#     269495
#     292635
#     313070
# 
# Disc length: 4442
# 
# Revision: 1
# Processed by: cddbd v1.5.2PL0 Copyright (c) Steve Scherf et al.
# Submitted via: fre:ac v1.0.17
# 
DISCID=f2115810
DTITLE=Various Artist - WORLD TRAVEL See the world by train -世界の車窓から-
DYEAR=2003
DGENRE=Pop
TTITLE0=溝口 肇 - 世界の車窓から
TTITLE1=Pat Metheny Group - Last Train Home
TTITLE2=Antonio Carlos Jobim - Wave
TTITLE3=Sissel - Here, There And Everywhere
TTITLE4=Nana Mouskouri - La Violetera
TTITLE5=Jane Birkin - Love Slow Motion
TTITLE6=The Oscar Peterson Trio and The Singers Unlimited - Children's Game
TTITLE7=Jovanotti - Un Raggio Di Sole
TTITLE8=Chuck Mangione - Feels So Good
TTITLE9=Faye Wong - Cooking Smoke Rising Again
TTITLE10=Secret Garden - Lore Of The Loom
TTITLE11=Bjork - Venus As A Boy
TTITLE12=Salif Keita - Africa
TTITLE13=Gato Barbieri - Fiesta
TTITLE14=Michael Brecker feat. James Taylor - The Nearness Of You
TTITLE15=Eric Clapton - We've Been Told (Jesus Is Coming Soon)
EXTD=YEAR: 2003
EXTT0=
EXTT1=
EXTT2=
EXTT3=
EXTT4=
EXTT5=
EXTT6=
EXTT7=
EXTT8=
EXTT9=
EXTT10=
EXTT11=
EXTT12=
EXTT13=
EXTT14=
EXTT15=
PLAYORDER=
